<?xml version="1.0" encoding="utf-8"?>
<!-- Generator: Adobe Illustrator 26.0.0, SVG Export Plug-In . SVG Version: 6.00 Build 0)  -->
<svg version="1.1" id="Layer_1" xmlns="http://www.w3.org/2000/svg" xmlns:xlink="http://www.w3.org/1999/xlink" x="0px" y="0px"
	 viewBox="0 0 40 40" style="enable-background:new 0 0 40 40;" xml:space="preserve">
<style type="text/css">
	.st0{fill:#FFFFFF;}
</style>
<path class="st0" d="M20,0C9,0,0,9,0,20c0,9.9,7.2,18.1,16.7,19.8l0.1-0.1c0,0,0,0,0,0V25.6h-5V20h5v-4.4c0-5,3.2-7.8,7.8-7.8
	c1.4,0,3,0.2,4.4,0.4v5.1h-2.6c-2.4,0-3,1.2-3,2.8V20h5.3l-0.9,5.6h-4.4v14.1c-0.1,0-0.1,0-0.2,0l0.1,0.1C32.8,38.1,40,29.9,40,20
	C40,9,31,0,20,0z"/>
</svg>
